<?xml version="1.0" standalone="no"?>
<!DOCTYPE svg PUBLIC "-//W3C//DTD SVG 20010904//EN"
 "http://www.w3.org/TR/2001/REC-SVG-20010904/DTD/svg10.dtd">
<svg version="1.0" xmlns="http://www.w3.org/2000/svg"
 width="2048.000000pt" height="2048.000000pt" viewBox="0 0 2048.000000 2048.000000"
 preserveAspectRatio="xMidYMid meet">

<g transform="translate(0.000000,2048.000000) scale(0.100000,-0.100000)"
fill="#000000" stroke="none">
<path d="M4220 13239 c-139 -11 -241 -60 -334 -159 -31 -34 -68 -84 -81 -111
-54 -105 -55 -121 -55 -696 0 -293 -3 -533 -8 -533 -11 0 -204 198 -307 315
-122 139 -123 140 -67 50 27 -44 89 -145 137 -225 111 -182 208 -328 299 -450
l71 -95 5 725 c5 718 6 726 28 792 27 80 82 153 148 196 103 65 13 62 1671 62
l1503 0 0 -262 c0 -145 5 -292 10 -328 24 -152 122 -278 270 -349 l75 -36 308
-3 307 -3 0 -560 c0 -309 3 -559 8 -557 4 2 35 23 70 47 l62 45 0 559 0 559
-279 286 c-154 158 -381 388 -504 511 l-225 224 -1513 1 c-833 1 -1552 -1
-1599 -5z m3517 -606 l352 -358 -220 -3 c-130 -1 -236 2 -259 8 -54 14 -128
67 -167 118 -56 74 -65 121 -70 370 -3 122 -1 222 3 222 5 1 167 -160 361
-357z"/>
<path d="M3250 12174 c0 -22 129 -461 175 -594 224 -649 576 -1297 980 -1800
443 -553 959 -925 1469 -1060 159 -42 280 -60 451 -67 693 -27 1331 307 1940
1017 268 312 448 587 649 988 161 322 248 530 354 847 65 193 158 523 150 531
-2 2 -23 -41 -47 -95 -101 -232 -326 -622 -501 -864 -169 -235 -270 -356 -465
-556 -305 -311 -585 -521 -910 -681 -195 -97 -354 -152 -545 -190 -192 -38
-307 -50 -495 -50 -534 0 -1018 163 -1515 509 -297 207 -639 524 -899 835
-250 297 -533 727 -703 1066 -48 96 -88 170 -88 164z"/>
<path d="M4650 12109 c-30 -5 -93 -27 -139 -49 -337 -161 -417 -629 -154 -894
227 -229 565 -234 789 -11 181 180 224 445 107 668 -113 215 -349 327 -603
286z"/>
<path d="M9235 11878 c-155 -211 -269 -343 -449 -523 -230 -229 -450 -409
-666 -546 -100 -64 -294 -166 -387 -205 -51 -21 -91 -39 -90 -40 2 -2 251
-146 358 -207 l37 -21 58 49 c256 219 569 573 798 905 102 147 270 414 331
525 21 39 49 89 62 113 14 23 23 42 20 42 -2 0 -35 -42 -72 -92z"/>
<path d="M6016 11824 c-3 -9 -6 -72 -6 -141 l0 -124 -82 -92 c-214 -238 -356
-354 -549 -447 l-101 -48 53 -11 c138 -30 303 -51 396 -51 l101 0 49 38 c27
22 80 73 119 115 l71 77 171 0 c95 0 172 -4 172 -8 0 -14 -171 -176 -220 -209
-225 -152 -417 -172 -820 -87 -91 19 -214 44 -275 56 -180 33 -273 13 -364
-81 -60 -61 -92 -138 -98 -237 l-5 -71 73 -63 c41 -35 133 -107 204 -160 397
-294 765 -459 1185 -532 170 -30 539 -32 705 -5 377 62 692 194 1027 430 54
37 100 72 103 77 14 22 -419 251 -511 270 -152 32 -202 4 -850 -472 -89 -65
-164 -118 -168 -118 -11 0 -191 126 -288 202 l-87 67 -68 -14 c-135 -29 -342
-14 -493 36 -81 26 -212 80 -207 85 2 2 44 -4 93 -13 127 -24 457 -24 575 0
242 49 419 144 594 322 116 117 210 250 282 397 l58 117 63 0 62 1 0 355 0
355 -479 0 c-427 0 -480 -2 -485 -16z m844 -296 l0 -193 -23 26 c-37 45 -71
60 -130 60 -85 0 -141 -39 -186 -129 l-22 -42 -179 2 c-99 2 -180 6 -180 11 0
4 0 108 0 232 l0 225 360 0 360 0 0 -192z"/>
<path d="M14772 10755 l-92 -135 58 0 57 0 110 104 c96 91 107 105 90 112 -11
4 -44 18 -74 31 -29 12 -54 23 -55 23 -1 0 -43 -61 -94 -135z"/>
<path d="M16404 10851 c-83 -36 -83 -163 1 -191 70 -23 144 41 131 114 -11 59
-80 99 -132 77z"/>
<path d="M16820 10323 c0 -345 4 -552 11 -576 32 -115 174 -167 305 -112 l36
15 -7 57 c-4 32 -9 61 -12 65 -2 5 -17 1 -33 -7 -30 -16 -77 -19 -105 -9 -44
17 -45 34 -45 584 l0 520 -75 0 -75 0 0 -537z"/>
<path d="M10060 10194 l0 -564 80 0 80 0 0 180 0 180 183 0 c255 0 348 27 440
130 62 69 90 143 90 245 2 145 -52 252 -159 324 -89 59 -120 64 -431 66 l-283
3 0 -564z m559 406 c156 -44 215 -255 109 -385 -59 -71 -88 -79 -310 -83
l-198 -4 0 241 0 241 183 0 c100 0 197 -4 216 -10z"/>
<path d="M12407 10753 c-4 -3 -7 -258 -7 -565 l0 -559 78 3 77 3 1 240 1 240
307 3 306 2 0 70 0 70 -310 0 -310 0 0 175 0 175 335 0 336 0 -3 73 -3 72
-401 3 c-220 1 -403 -1 -407 -5z"/>
<path d="M13420 10195 l0 -565 75 0 75 0 0 245 0 245 315 0 315 0 0 70 0 70
-315 0 -315 0 0 175 0 175 335 0 335 0 0 75 0 75 -410 0 -410 0 0 -565z"/>
<path d="M11150 10190 l0 -560 261 0 c296 0 360 9 472 67 278 145 365 558 174
826 -75 105 -177 173 -314 208 -66 16 -112 19 -335 19 l-258 0 0 -560z m543
405 c193 -50 307 -203 307 -410 0 -173 -81 -310 -222 -376 l-73 -34 -198 -5
c-109 -3 -201 -3 -203 -1 -2 2 -4 193 -4 423 l0 418 168 0 c117 0 185 -5 225
-15z"/>
<path d="M3746 10183 c-11 -562 2 -2075 20 -2145 39 -162 163 -293 333 -351
l66 -22 1865 3 c2021 4 1926 1 2029 57 141 77 261 256 261 390 l0 45 -44 0
c-24 0 -51 2 -59 6 -11 4 -16 -7 -20 -45 -13 -106 -104 -228 -212 -285 l-60
-31 -1885 0 -1885 0 -54 28 c-73 37 -109 69 -153 133 -70 103 -68 63 -68 1281
l0 1088 -63 102 -64 102 -7 -356z"/>
<path d="M14613 10500 c-84 -22 -168 -57 -184 -76 -9 -12 -6 -26 16 -67 15
-28 29 -53 31 -55 1 -2 24 8 50 22 74 38 168 59 244 54 108 -8 171 -51 195
-132 28 -92 38 -86 -160 -86 -237 0 -311 -18 -382 -92 -68 -71 -84 -203 -35
-299 51 -101 157 -154 307 -152 100 0 180 29 242 86 l43 40 0 -57 0 -56 76 0
75 0 -3 323 -3 322 -26 56 c-15 31 -42 71 -61 91 -90 89 -262 121 -425 78z
m351 -456 c21 -8 22 -120 2 -167 -42 -98 -188 -163 -311 -137 -188 39 -194
255 -9 299 44 10 294 14 318 5z"/>
<path d="M15667 10506 c-83 -24 -157 -68 -207 -123 -147 -161 -165 -396 -44
-578 63 -95 147 -150 281 -181 160 -38 347 22 432 138 17 23 31 45 31 49 0 4
-25 21 -56 38 l-56 30 -44 -45 c-60 -61 -112 -84 -196 -84 -98 0 -165 28 -227
95 -61 67 -85 133 -85 231 1 123 60 220 166 273 117 59 255 36 344 -57 l39
-41 55 35 c30 19 57 39 59 45 2 6 -26 39 -61 73 -85 84 -147 108 -283 112 -64
2 -117 -2 -148 -10z"/>
<path d="M16370 10071 l0 -441 75 0 75 0 0 435 0 435 -44 0 c-24 0 -58 3 -75
6 l-31 7 0 -442z"/>
<path d="M6346 10344 c-21 -15 -75 -44 -119 -67 -75 -37 -79 -41 -61 -54 160
-121 225 -163 237 -156 7 4 46 33 87 64 41 31 124 91 184 135 l109 79 -169 6
c-93 4 -182 9 -199 13 -23 5 -39 0 -69 -20z"/>
<path d="M8440 9708 c-41 -55 -112 -140 -158 -189 l-83 -88 73 -40 c40 -23
115 -62 167 -88 86 -44 99 -48 165 -47 194 1 466 131 466 222 0 40 -21 56
-151 111 -153 65 -200 89 -306 160 -50 34 -93 61 -95 61 -1 -1 -37 -46 -78
-102z"/>
<path d="M8194 9265 c7 -33 102 -321 124 -375 8 -19 11 22 11 160 l1 186 -65
32 c-36 18 -68 32 -71 32 -4 0 -3 -16 0 -35z"/>
<path d="M7980 9209 c-70 -64 -228 -188 -297 -234 l-42 -27 18 -37 c10 -20 42
-92 70 -161 83 -203 138 -298 196 -342 97 -74 273 -128 412 -128 77 1 100 13
109 56 4 23 -6 46 -51 119 -32 50 -70 115 -86 147 -39 77 -179 431 -219 553
-18 55 -35 103 -39 107 -3 3 -35 -20 -71 -53z"/>
</g>
</svg>
